{
  "asset": {
    "version": "2.0",
    "generator": "Sketchup glTF Exporter v1.2.5 by Centaur"
  },
  "scene": 0,
  "scenes": [
    {
      "nodes": [
        0
      ]
    }
  ],
  "samplers": [
    {
    }
  ],
  "nodes": [
    {
      "name": "root",
      "mesh": 0
    }
  ],
  "materials": [
    {
      "pbrMetallicRoughness": {
        "baseColorTexture": {
          "index": 0
        },
        "metallicFactor": 0.1,
        "roughnessFactor": 0.9
      },
      "name": "roof"
    },
    {
      "pbrMetallicRoughness": {
        "baseColorFactor": [
          1.0,
          0.5295,
          0.0,
          1.0
        ],
        "metallicFactor": 0.1,
        "roughnessFactor": 0.9
      },
      "name": "Color_D01"
    },
    {
      "pbrMetallicRoughness": {
        "baseColorTexture": {
          "index": 1
        },
        "metallicFactor": 0.1,
        "roughnessFactor": 0.9
      },
      "name": "cuploa"
    },
    {
      "pbrMetallicRoughness": {
        "baseColorTexture": {
          "index": 2
        },
        "metallicFactor": 0.1,
        "roughnessFactor": 0.9
      },
      "name": "arch1",
      "doubleSided": true
    },
    {
      "pbrMetallicRoughness": {
        "baseColorTexture": {
          "index": 3
        },
        "metallicFactor": 0.1,
        "roughnessFactor": 0.9
      },
      "name": "arch2",
      "doubleSided": true
    },
    {
      "pbrMetallicRoughness": {
        "baseColorTexture": {
          "index": 4
        },
        "metallicFactor": 0.1,
        "roughnessFactor": 0.9
      },
      "name": "dormer"
    },
    {
      "pbrMetallicRoughness": {
        "baseColorTexture": {
          "index": 5
        },
        "metallicFactor": 0.1,
        "roughnessFactor": 0.9
      },
      "name": "Cladding_Siding_White"
    },
    {
      "pbrMetallicRoughness": {
        "baseColorFactor": [
          0.2176,
          0.2176,
          0.2176,
          1.0
        ],
        "metallicFactor": 0.1,
        "roughnessFactor": 0.9
      },
      "name": "default material",
      "doubleSided": true
    },
    {
      "pbrMetallicRoughness": {
        "baseColorFactor": [
          0.7969,
          0.8046,
          0.6941,
          1.0
        ],
        "metallicFactor": 0.1,
        "roughnessFactor": 0.9
      },
      "name": "tan"
    },
    {
      "pbrMetallicRoughness": {
        "baseColorTexture": {
          "index": 6
        },
        "metallicFactor": 0.1,
        "roughnessFactor": 0.9
      },
      "name": "brick"
    },
    {
      "pbrMetallicRoughness": {
        "baseColorFactor": [
          0.4098,
          0.4098,
          0.4098,
          1.0
        ],
        "metallicFactor": 0.1,
        "roughnessFactor": 0.9
      },
      "name": "<Gray6>"
    },
    {
      "pbrMetallicRoughness": {
        "baseColorTexture": {
          "index": 7
        },
        "metallicFactor": 0.1,
        "roughnessFactor": 0.9
      },
      "name": "column"
    },
    {
      "pbrMetallicRoughness": {
        "baseColorTexture": {
          "index": 8
        },
        "metallicFactor": 0.1,
        "roughnessFactor": 0.9
      },
      "name": "side elevation"
    },
    {
      "pbrMetallicRoughness": {
        "baseColorTexture": {
          "index": 9
        },
        "metallicFactor": 0.1,
        "roughnessFactor": 0.9
      },
      "name": "top cupola"
    },
    {
      "pbrMetallicRoughness": {
        "baseColorTexture": {
          "index": 10
        },
        "metallicFactor": 0.1,
        "roughnessFactor": 0.9
      },
      "name": "back elevation"
    },
    {
      "pbrMetallicRoughness": {
        "baseColorTexture": {
          "index": 11
        },
        "metallicFactor": 0.1,
        "roughnessFactor": 0.9
      },
      "name": "shed"
    },
    {
      "pbrMetallicRoughness": {
        "baseColorTexture": {
          "index": 12
        },
        "metallicFactor": 0.1,
        "roughnessFactor": 0.9
      },
      "name": "beam"
    },
    {
      "pbrMetallicRoughness": {
        "baseColorTexture": {
          "index": 13
        },
        "roughnessFactor": 0.1
      },
      "name": "Roofing_Metal_Standing_Seam_Red"
    },
    {
      "pbrMetallicRoughness": {
        "baseColorTexture": {
          "index": 14
        },
        "metallicFactor": 0.1,
        "roughnessFactor": 0.9
      },
      "name": "weathervain",
      "doubleSided": true
    },
    {
      "pbrMetallicRoughness": {
        "baseColorTexture": {
          "index": 15
        },
        "metallicFactor": 0.1,
        "roughnessFactor": 0.9
      },
      "name": "front elevation"
    },
    {
      "pbrMetallicRoughness": {
        "baseColorTexture": {
          "index": 16
        },
        "metallicFactor": 0.1,
        "roughnessFactor": 0.9
      },
      "name": "window"
    },
    {
      "pbrMetallicRoughness": {
        "baseColorTexture": {
          "index": 17
        },
        "metallicFactor": 0.1,
        "roughnessFactor": 0.9
      },
      "name": "door"
    }
  ],
  "images": [
    {
      "bufferView": 0,
      "mimeType": "image/jpeg"
    },
    {
      "bufferView": 1,
      "mimeType": "image/jpeg"
    },
    {
      "bufferView": 2,
      "mimeType": "image/png"
    },
    {
      "bufferView": 3,
      "mimeType": "image/png"
    },
    {
      "bufferView": 4,
      "mimeType": "image/jpeg"
    },
    {
      "bufferView": 5,
      "mimeType": "image/jpeg"
    },
    {
      "bufferView": 6,
      "mimeType": "image/jpeg"
    },
    {
      "bufferView": 7,
      "mimeType": "image/jpeg"
    },
    {
      "bufferView": 8,
      "mimeType": "image/jpeg"
    },
    {
      "bufferView": 9,
      "mimeType": "image/jpeg"
    },
    {
      "bufferView": 10,
      "mimeType": "image/jpeg"
    },
    {
      "bufferView": 11,
      "mimeType": "image/jpeg"
    },
    {
      "bufferView": 12,
      "mimeType": "image/jpeg"
    },
    {
      "bufferView": 13,
      "mimeType": "image/jpeg"
    },
    {
      "bufferView": 14,
      "mimeType": "image/png"
    },
    {
      "bufferView": 15,
      "mimeType": "image/jpeg"
    },
    {
      "bufferView": 16,
      "mimeType": "image/jpeg"
    },
    {
      "bufferView": 17,
      "mimeType": "image/jpeg"
    }
  ],
  "textures": [
    {
      "source": 0,
      "sampler": 0
    },
    {
      "source": 1,
      "sampler": 0
    },
    {
      "source": 2,
      "sampler": 0
    },
    {
      "source": 3,
      "sampler": 0
    },
    {
      "source": 4,
      "sampler": 0
    },
    {
      "source": 5,
      "sampler": 0
    },
    {
      "source": 6,
      "sampler": 0
    },
    {
      "source": 7,
      "sampler": 0
    },
    {
      "source": 8,
      "sampler": 0
    },
    {
      "source": 9,
      "sampler": 0
    },
    {
      "source": 10,
      "sampler": 0
    },
    {
      "source": 11,
      "sampler": 0
    },
    {
      "source": 12,
      "sampler": 0
    },
    {
      "source": 13,
      "sampler": 0
    },
    {
      "source": 14,
      "sampler": 0
    },
    {
      "source": 15,
      "sampler": 0
    },
    {
      "source": 16,
      "sampler": 0
    },
    {
      "source": 17,
      "sampler": 0
    }
  ],
  "meshes": [
    {
      "primitives": [
        {
          "attributes": {
            "POSITION": 2,
            "NORMAL": 3,
            "TEXCOORD_0": 4
          },
          "indices": 5,
          "mode": 4,
          "material": 0
        },
        {
          "attributes": {
            "POSITION": 0,
            "NORMAL": 1
          },
          "indices": 6,
          "mode": 4,
          "material": 1
        },
        {
          "attributes": {
            "POSITION": 2,
            "NORMAL": 3,
            "TEXCOORD_0": 4
          },
          "indices": 7,
          "mode": 4,
          "material": 2
        },
        {
          "attributes": {
            "POSITION": 2,
            "NORMAL": 3,
            "TEXCOORD_0": 4
          },
          "indices": 8,
          "mode": 4,
          "material": 3
        },
        {
          "attributes": {
            "POSITION": 2,
            "NORMAL": 3,
            "TEXCOORD_0": 4
          },
          "indices": 9,
          "mode": 4,
          "material": 4
        },
        {
          "attributes": {
            "POSITION": 2,
            "NORMAL": 3,
            "TEXCOORD_0": 4
          },
          "indices": 10,
          "mode": 4,
          "material": 5
        },
        {
          "attributes": {
            "POSITION": 2,
            "NORMAL": 3,
            "TEXCOORD_0": 4
          },
          "indices": 11,
          "mode": 4,
          "material": 6
        },
        {
          "attributes": {
            "POSITION": 0,
            "NORMAL": 1
          },
          "indices": 12,
          "mode": 4,
          "material": 7
        },
        {
          "attributes": {
            "POSITION": 0,
            "NORMAL": 1
          },
          "indices": 13,
          "mode": 4,
          "material": 8
        },
        {
          "attributes": {
            "POSITION": 2,
            "NORMAL": 3,
            "TEXCOORD_0": 4
          },
          "indices": 14,
          "mode": 4,
          "material": 9
        },
        {
          "attributes": {
            "POSITION": 0,
            "NORMAL": 1
          },
          "indices": 15,
          "mode": 4,
          "material": 10
        },
        {
          "attributes": {
            "POSITION": 2,
            "NORMAL": 3,
            "TEXCOORD_0": 4
          },
          "indices": 16,
          "mode": 4,
          "material": 11
        },
        {
          "attributes": {
            "POSITION": 2,
            "NORMAL": 3,
            "TEXCOORD_0": 4
          },
          "indices": 17,
          "mode": 4,
          "material": 12
        },
        {
          "attributes": {
            "POSITION": 2,
            "NORMAL": 3,
            "TEXCOORD_0": 4
          },
          "indices": 18,
          "mode": 4,
          "material": 13
        },
        {
          "attributes": {
            "POSITION": 2,
            "NORMAL": 3,
            "TEXCOORD_0": 4
          },
          "indices": 19,
          "mode": 4,
          "material": 14
        },
        {
          "attributes": {
            "POSITION": 2,
            "NORMAL": 3,
            "TEXCOORD_0": 4
          },
          "indices": 20,
          "mode": 4,
          "material": 15
        },
        {
          "attributes": {
            "POSITION": 2,
            "NORMAL": 3,
            "TEXCOORD_0": 4
          },
          "indices": 21,
          "mode": 4,
          "material": 16
        },
        {
          "attributes": {
            "POSITION": 2,
            "NORMAL": 3,
            "TEXCOORD_0": 4
          },
          "indices": 22,
          "mode": 4,
          "material": 17
        },
        {
          "attributes": {
            "POSITION": 2,
            "NORMAL": 3,
            "TEXCOORD_0": 4
          },
          "indices": 23,
          "mode": 4,
          "material": 18
        },
        {
          "attributes": {
            "POSITION": 2,
            "NORMAL": 3,
            "TEXCOORD_0": 4
          },
          "indices": 24,
          "mode": 4,
          "material": 19
        },
        {
          "attributes": {
            "POSITION": 2,
            "NORMAL": 3,
            "TEXCOORD_0": 4
          },
          "indices": 25,
          "mode": 4,
          "material": 20
        },
        {
          "attributes": {
            "POSITION": 2,
            "NORMAL": 3,
            "TEXCOORD_0": 4
          },
          "indices": 26,
          "mode": 4,
          "material": 21
        }
      ]
    }
  ],
  "accessors": [
    {
      "bufferView": 18,
      "componentType": 5126,
      "count": 488,
      "type": "VEC3",
      "min": [
        -23.829600973857495,
        4.102099999999999,
        -25.33021822693565
      ],
      "max": [
        25.169399125365786,
        15.77863865417887,
        24.79132785238027
      ]
    },
    {
      "bufferView": 19,
      "componentType": 5126,
      "count": 488,
      "type": "VEC3",
      "min": [
        -0.9650217401389352,
        -1.0,
        -0.965021740138964
      ],
      "max": [
        0.9650217401389535,
        1.0,
        0.96502174013895
      ]
    },
    {
      "bufferView": 20,
      "componentType": 5126,
      "count": 1478,
      "type": "VEC3",
      "min": [
        -25.379185540462615,
        -0.7747000000000013,
        -27.605976135807907
      ],
      "max": [
        25.169399125365786,
        17.447418654178875,
        24.79132785238027
      ]
    },
    {
      "bufferView": 21,
      "componentType": 5126,
      "count": 1478,
      "type": "VEC3",
      "min": [
        -0.9997850295611205,
        -1.6021933351840133e-14,
        -0.9943463393273035
      ],
      "max": [
        0.9998240774748655,
        0.983492666169214,
        0.9907638321028935
      ]
    },
    {
      "bufferView": 22,
      "componentType": 5126,
      "count": 1478,
      "type": "VEC2",
      "min": [
        -113.31800439808372,
        -31.98177832520468
      ],
      "max": [
        113.19865510392385,
        17.262571199332125
      ]
    },
    {
      "bufferView": 24,
      "componentType": 5123,
      "count": 1137,
      "type": "SCALAR"
    },
    {
      "bufferView": 23,
      "componentType": 5123,
      "count": 216,
      "type": "SCALAR"
    },
    {
      "bufferView": 24,
      "componentType": 5123,
      "count": 201,
      "type": "SCALAR",
      "byteOffset": 2274
    },
    {
      "bufferView": 24,
      "componentType": 5123,
      "count": 72,
      "type": "SCALAR",
      "byteOffset": 2676
    },
    {
      "bufferView": 24,
      "componentType": 5123,
      "count": 60,
      "type": "SCALAR",
      "byteOffset": 2820
    },
    {
      "bufferView": 24,
      "componentType": 5123,
      "count": 273,
      "type": "SCALAR",
      "byteOffset": 2940
    },
    {
      "bufferView": 24,
      "componentType": 5123,
      "count": 306,
      "type": "SCALAR",
      "byteOffset": 3486
    },
    {
      "bufferView": 23,
      "componentType": 5123,
      "count": 384,
      "type": "SCALAR",
      "byteOffset": 432
    },
    {
      "bufferView": 23,
      "componentType": 5123,
      "count": 156,
      "type": "SCALAR",
      "byteOffset": 1200
    },
    {
      "bufferView": 24,
      "componentType": 5123,
      "count": 180,
      "type": "SCALAR",
      "byteOffset": 4098
    },
    {
      "bufferView": 23,
      "componentType": 5123,
      "count": 36,
      "type": "SCALAR",
      "byteOffset": 1512
    },
    {
      "bufferView": 24,
      "componentType": 5123,
      "count": 234,
      "type": "SCALAR",
      "byteOffset": 4458
    },
    {
      "bufferView": 24,
      "componentType": 5123,
      "count": 90,
      "type": "SCALAR",
      "byteOffset": 4926
    },
    {
      "bufferView": 24,
      "componentType": 5123,
      "count": 48,
      "type": "SCALAR",
      "byteOffset": 5106
    },
    {
      "bufferView": 24,
      "componentType": 5123,
      "count": 24,
      "type": "SCALAR",
      "byteOffset": 5202
    },
    {
      "bufferView": 24,
      "componentType": 5123,
      "count": 18,
      "type": "SCALAR",
      "byteOffset": 5250
    },
    {
      "bufferView": 24,
      "componentType": 5123,
      "count": 18,
      "type": "SCALAR",
      "byteOffset": 5286
    },
    {
      "bufferView": 24,
      "componentType": 5123,
      "count": 42,
      "type": "SCALAR",
      "byteOffset": 5322
    },
    {
      "bufferView": 24,
      "componentType": 5123,
      "count": 9,
      "type": "SCALAR",
      "byteOffset": 5406
    },
    {
      "bufferView": 24,
      "componentType": 5123,
      "count": 24,
      "type": "SCALAR",
      "byteOffset": 5424
    },
    {
      "bufferView": 24,
      "componentType": 5123,
      "count": 24,
      "type": "SCALAR",
      "byteOffset": 5472
    },
    {
      "bufferView": 24,
      "componentType": 5123,
      "count": 12,
      "type": "SCALAR",
      "byteOffset": 5520
    }
  ],
  "bufferViews": [
    {
      "buffer": 0,
      "byteLength": 9499
    },
    {
      "buffer": 0,
      "byteOffset": 9499,
      "byteLength": 10053
    },
    {
      "buffer": 0,
      "byteOffset": 19552,
      "byteLength": 60146
    },
    {
      "buffer": 0,
      "byteOffset": 79698,
      "byteLength": 46416
    },
    {
      "buffer": 0,
      "byteOffset": 126114,
      "byteLength": 10172
    },
    {
      "buffer": 0,
      "byteOffset": 136286,
      "byteLength": 2116
    },
    {
      "buffer": 0,
      "byteOffset": 138402,
      "byteLength": 7436
    },
    {
      "buffer": 0,
      "byteOffset": 145838,
      "byteLength": 33241
    },
    {
      "buffer": 0,
      "byteOffset": 179079,
      "byteLength": 151068
    },
    {
      "buffer": 0,
      "byteOffset": 330147,
      "byteLength": 795
    },
    {
      "buffer": 0,
      "byteOffset": 330942,
      "byteLength": 508301
    },
    {
      "buffer": 0,
      "byteOffset": 839243,
      "byteLength": 55814
    },
    {
      "buffer": 0,
      "byteOffset": 895057,
      "byteLength": 16968
    },
    {
      "buffer": 0,
      "byteOffset": 912025,
      "byteLength": 5929
    },
    {
      "buffer": 0,
      "byteOffset": 917954,
      "byteLength": 9812
    },
    {
      "buffer": 0,
      "byteOffset": 927766,
      "byteLength": 153307
    },
    {
      "buffer": 0,
      "byteOffset": 1081073,
      "byteLength": 9869
    },
    {
      "buffer": 0,
      "byteOffset": 1090942,
      "byteLength": 7579
    },
    {
      "buffer": 0,
      "byteOffset": 1098528,
      "byteLength": 5856,
      "target": 34962,
      "byteStride": 12
    },
    {
      "buffer": 0,
      "byteOffset": 1104384,
      "byteLength": 5856,
      "target": 34962,
      "byteStride": 12
    },
    {
      "buffer": 0,
      "byteOffset": 1110240,
      "byteLength": 17736,
      "target": 34962,
      "byteStride": 12
    },
    {
      "buffer": 0,
      "byteOffset": 1127976,
      "byteLength": 17736,
      "target": 34962,
      "byteStride": 12
    },
    {
      "buffer": 0,
      "byteOffset": 1145712,
      "byteLength": 11824,
      "target": 34962,
      "byteStride": 8
    },
    {
      "buffer": 0,
      "byteOffset": 1157536,
      "byteLength": 1584,
      "target": 34963
    },
    {
      "buffer": 0,
      "byteOffset": 1159120,
      "byteLength": 5544,
      "target": 34963
    }
  ],
  "buffers": [
    {
      "uri": "data:application/octet-stream;base64,",
      "byteLength": 1164664
    }
  ]
}